<svg height="512pt" viewBox="0 0 512 512.001" width="512pt" xmlns="http://www.w3.org/2000/svg"><path d="m150.632812 236h40v40h-40zm0 0"/><path d="m236 236h40v40h-40zm0 0"/><path d="m321.367188 236h40v40h-40zm0 0"/><path d="m340.789062 380.996094c-24.84375 16.875-54.402343 26.027344-84.789062 26.027344-83.464844 0-151.023438-67.546876-151.023438-151.023438v-15h-104.976562v15c0 141.480469 114.496094 256 256 256 58.386719 0 114.597656-19.785156 159.804688-55.988281l31.179687 31.179687 27.742187-161.691406-161.691406 27.742188zm0 0"/><path d="m256 0c-58.25 0-114.355469 19.707031-159.511719 55.761719l-30.953125-30.953125-27.742187 161.691406 161.691406-27.742188-27.992187-27.992187c24.851562-16.921875 53.761718-25.789063 84.507812-25.789063 83.464844 0 151.023438 67.550782 151.023438 151.023438v15h104.976562v-15c0-141.480469-114.496094-256-256-256zm0 0"/></svg>